<?xml version="1.0" standalone="no"?>
<!DOCTYPE svg PUBLIC "-//W3C//DTD SVG 20010904//EN"
 "http://www.w3.org/TR/2001/REC-SVG-20010904/DTD/svg10.dtd">
<svg version="1.0" xmlns="http://www.w3.org/2000/svg"
 width="1024.000000pt" height="1024.000000pt" viewBox="200 200 624 624"
 preserveAspectRatio="xMidYMid meet">

<g transform="translate(0.000000,1024.000000) scale(0.100000,-0.100000)"
fill="#ffffff" stroke="none">
<path d="M2915 8868 c-304 -25 -568 -112 -800 -265 -133 -88 -355 -309 -443
-442 -150 -224 -224 -444 -264 -776 -19 -160 -19 -4348 0 -4510 50 -428 180
-731 425 -991 310 -328 658 -479 1190 -514 110 -8 817 -10 2207 -7 2219 4
2130 1 2370 58 211 49 418 140 579 256 336 241 555 594 631 1014 40 223 41
321 38 2534 -4 2287 -2 2163 -52 2400 -65 306 -204 561 -428 782 -255 253
-516 381 -907 445 l-136 22 -2150 2 c-1207 1 -2198 -2 -2260 -8z m2341 -770
c43 -15 956 -520 1733 -957 251 -142 500 -281 554 -311 153 -84 227 -177 248
-312 6 -39 9 -564 7 -1398 l-3 -1335 -23 -58 c-48 -117 -77 -139 -592 -429
-567 -319 -935 -529 -1485 -848 -231 -134 -440 -249 -464 -257 -58 -17 -165
-17 -227 2 -27 8 -224 116 -439 241 -608 353 -1310 754 -1650 943 -342 191
-385 223 -438 331 l-32 65 0 1385 0 1386 38 76 c51 105 118 164 293 259 76 42
477 264 889 494 1089 606 1274 706 1335 727 65 21 191 20 256 -4z"/>
<path d="M4780 7759 c-882 -481 -1900 -1052 -1900 -1065 0 -21 26 -18 240 27
341 71 1255 258 1559 319 162 33 305 67 318 75 l23 16 -2 362 -3 362 -25 2
c-16 2 -93 -35 -210 -98z"/>
<path d="M5222 7852 c-9 -7 -12 -87 -10 -368 l3 -359 35 -17 c19 -9 188 -46
375 -82 299 -59 855 -172 1507 -308 157 -33 210 -40 219 -31 15 15 6 20 -397
243 -181 101 -437 244 -568 318 -442 248 -1116 612 -1133 612 -10 0 -24 -4
-31 -8z"/>
<path d="M4130 6736 c-404 -84 -872 -181 -1040 -215 -353 -72 -340 -69 -340
-85 0 -10 498 -1153 787 -1808 18 -40 31 -58 44 -58 20 0 39 31 294 475 160
280 903 1553 1012 1734 50 83 52 105 8 108 -17 1 -361 -67 -765 -151z"/>
<path d="M5314 6876 c-3 -8 65 -135 152 -283 86 -147 278 -477 427 -733 148
-256 331 -571 407 -700 75 -129 179 -307 230 -395 51 -88 98 -168 104 -178 6
-10 20 -16 30 -15 22 3 25 8 328 708 344 795 398 920 450 1038 43 97 49 116
37 127 -8 8 -59 22 -114 33 -400 79 -1256 254 -1838 377 -187 39 -205 41 -213
21z"/>
<path d="M5082 6738 c-16 -24 -71 -115 -122 -203 -51 -88 -204 -349 -340 -580
-464 -788 -870 -1497 -870 -1520 0 -13 7 -26 16 -29 20 -8 2692 -8 2722 0 12
4 22 13 22 21 0 7 -56 107 -124 221 -121 203 -248 420 -896 1535 -179 307
-333 567 -343 577 -25 28 -32 26 -65 -22z m-212 -1115 c74 -24 143 -89 170
-161 32 -84 25 -186 -18 -267 -37 -68 -138 -194 -248 -306 -41 -42 -74 -79
-74 -83 0 -3 81 -6 180 -6 l180 0 0 -85 0 -85 -321 0 -320 0 2 67 2 68 141
149 c240 254 284 309 307 384 9 33 10 51 0 81 -38 130 -228 111 -250 -24 l-6
-37 -93 -1 -92 -2 0 26 c0 43 28 122 60 171 33 50 88 93 147 114 53 19 170 17
233 -3z m761 -20 c145 -65 209 -211 209 -475 -1 -264 -60 -407 -198 -475 -50
-25 -68 -28 -152 -28 -84 0 -102 3 -153 29 -144 70 -205 235 -194 523 9 252
77 380 230 435 69 24 193 20 258 -9z"/>
<path d="M5447 5445 c-20 -7 -44 -18 -52 -25 -54 -45 -85 -231 -66 -395 20
-166 64 -229 163 -229 111 0 168 113 168 332 0 239 -83 362 -213 317z"/>
<path d="M7598 6205 c-8 -12 -72 -159 -360 -825 -116 -267 -257 -593 -314
-725 -62 -141 -104 -250 -102 -265 5 -39 17 -47 577 -387 85 -51 162 -93 171
-93 10 0 23 6 29 14 8 10 10 319 9 1152 -2 626 -6 1134 -10 1129z"/>
<path d="M2630 5070 c0 -1129 1 -1170 34 -1170 18 0 707 420 744 453 12 11 22
27 22 35 0 16 -101 252 -469 1092 -304 693 -312 710 -322 710 -5 0 -9 -504 -9
-1120z"/>
<path d="M3780 4203 c0 -18 301 -408 793 -1030 150 -189 326 -416 393 -505 67
-88 128 -164 136 -169 9 -5 21 -3 31 4 15 12 158 191 745 935 452 572 573 733
570 756 l-3 21 -1332 3 c-1265 2 -1333 1 -1333 -15z"/>
<path d="M3175 3985 c-176 -107 -335 -206 -352 -220 -65 -51 -60 -56 225 -222
421 -247 1272 -741 1487 -863 110 -63 220 -127 244 -142 96 -60 83 -32 -72
164 -73 92 -213 269 -313 395 -99 125 -328 417 -509 648 -181 231 -333 423
-339 427 -6 4 -20 8 -31 7 -11 0 -164 -87 -340 -194z"/>
<path d="M6629 4098 c-149 -194 -627 -806 -1033 -1321 -103 -131 -186 -245
-184 -253 4 -17 -25 -34 923 519 807 470 1063 620 1093 642 42 31 29 59 -50
109 -372 231 -637 386 -659 386 -21 0 -39 -16 -90 -82z"/>
</g>
</svg>
